<svg xmlns="http://www.w3.org/2000/svg" viewBox="0 0 256 256" width="256" height="256">
  <!-- Background -->
  <rect width="256" height="256" rx="48" fill="#2D3748"/>

  <!-- Globe/Language symbol -->
  <circle cx="128" cy="110" r="55" fill="none" stroke="#60A5FA" stroke-width="6"/>
  <ellipse cx="128" cy="110" rx="25" ry="55" fill="none" stroke="#60A5FA" stroke-width="6"/>
  <line x1="73" y1="110" x2="183" y2="110" stroke="#60A5FA" stroke-width="6"/>
  <line x1="128" y1="55" x2="128" y2="165" stroke="#60A5FA" stroke-width="6"/>

  <!-- Audio waves -->
  <path d="M 95 180 Q 95 195, 80 195" fill="none" stroke="#34D399" stroke-width="5" stroke-linecap="round"/>
  <path d="M 95 180 Q 95 210, 65 210" fill="none" stroke="#34D399" stroke-width="5" stroke-linecap="round"/>

  <path d="M 161 180 Q 161 195, 176 195" fill="none" stroke="#F59E0B" stroke-width="5" stroke-linecap="round"/>
  <path d="M 161 180 Q 161 210, 191 210" fill="none" stroke="#F59E0B" stroke-width="5" stroke-linecap="round"/>

  <!-- Speaker/Sound source -->
  <path d="M 108 180 L 108 195 L 95 195 L 95 180 Z" fill="#E5E7EB"/>
  <path d="M 108 187.5 L 122 178 L 122 197 Z" fill="#E5E7EB"/>

  <path d="M 148 180 L 148 195 L 161 195 L 161 180 Z" fill="#E5E7EB"/>
  <path d="M 148 187.5 L 134 178 L 134 197 Z" fill="#E5E7EB"/>

  <!-- Connection line -->
  <line x1="122" y1="187.5" x2="134" y2="187.5" stroke="#94A3B8" stroke-width="3"/>
</svg>
